# xmcd
#
# Track frame offsets:
#	150
#	20219
#	38722
#	56745
#	75752
#	95969
#	116006
#	136870
#	156694
#	172997
#	187611
#	204905
#
# Disc length: 2974 seconds
#
# Revision: 1
# Processed by: cddbd v1.5.2PL0 Copyright (c) Steve Scherf et al.
# Submitted via: audiograbber 1.83.01
#
DISCID=990b9c0c
DTITLE=Hellbillies - Spissrotgang
DYEAR=2007
DGENRE=Country
TTITLE0=Mot Straumen
TTITLE1=Spissrotgang
TTITLE2=Gamle Spor
TTITLE3=Ingen Der
TTITLE4=Livsfarleg Leik
TTITLE5=Seks Tusen Hål
TTITLE6=Fint Å Væra To
TTITLE7=Mørkemann
TTITLE8=Drukne Ei Gudinne
TTITLE9=Svelg Ein Kamel
TTITLE10=Ukjend By
TTITLE11=Hallo Telenor
EXTD=
EXTT0=
EXTT1=
EXTT2=
EXTT3=
EXTT4=
EXTT5=
EXTT6=
EXTT7=
EXTT8=
EXTT9=
EXTT10=
EXTT11=
PLAYORDER=
